<?xml version="1.0" standalone="no"?>
<!DOCTYPE svg PUBLIC "-//W3C//DTD SVG 20010904//EN"
        "http://www.w3.org/TR/2001/REC-SVG-20010904/DTD/svg10.dtd">
<svg version="1.0" xmlns="http://www.w3.org/2000/svg"
     width="512.000000pt" height="512.000000pt" viewBox="0 0 512.000000 512.000000"
     preserveAspectRatio="xMidYMid meet">

    <g transform="translate(0.000000,512.000000) scale(0.100000,-0.100000)"
       fill="#fff" stroke="none">
        <path d="M2670 5113 c-123 -6 -303 -26 -445 -48 -1046 -167 -1755 -683 -1930
-1408 -64 -265 -51 -580 35 -837 159 -475 588 -820 1193 -960 54 -12 96 -24
94 -26 -2 -2 -48 -10 -103 -18 -345 -53 -613 -193 -658 -346 -31 -106 -13
-196 55 -274 99 -112 250 -127 382 -38 59 40 130 68 217 86 92 19 230 36 287
36 l42 0 40 -78 c23 -42 67 -111 100 -152 33 -41 57 -78 54 -83 -3 -5 -25 -18
-48 -28 -37 -17 -67 -19 -222 -18 -198 1 -266 -9 -378 -60 -132 -60 -233 -161
-295 -293 -79 -169 -75 -413 8 -502 102 -109 278 -74 337 68 13 31 15 56 9
126 -5 75 -4 93 14 132 20 46 64 87 117 109 20 8 99 12 235 13 196 1 208 3
283 29 98 34 166 78 237 151 l55 57 40 -14 c77 -26 123 -159 110 -317 -11
-130 -8 -175 16 -229 49 -112 182 -186 296 -165 91 16 176 82 212 164 40 91
51 300 25 486 l-6 42 54 17 c29 10 80 31 112 47 l59 30 26 -20 c46 -34 72
-100 81 -206 6 -75 14 -106 34 -140 98 -167 308 -195 443 -61 40 41 55 65 69
111 15 51 15 62 3 84 -22 38 -56 51 -93 36 -23 -9 -35 -25 -51 -67 -24 -62
-69 -99 -122 -99 -77 0 -133 59 -133 141 0 105 -30 193 -90 269 l-28 36 93 92
93 93 47 -57 c26 -32 64 -93 85 -135 22 -42 46 -79 55 -83 53 -20 105 12 105
63 0 62 -70 186 -160 284 l-52 57 32 73 c18 39 42 113 54 162 22 89 23 90 60
103 124 41 310 40 496 -3 132 -31 194 -29 266 7 52 26 94 69 126 131 17 32 22
59 22 117 0 82 -18 130 -74 194 -40 45 -97 70 -227 100 -168 38 -289 50 -445
43 -83 -4 -137 -3 -133 2 3 5 42 29 88 53 409 219 718 559 830 915 84 265 82
554 -5 847 -232 782 -1030 1216 -2128 1159z m480 -158 c465 -46 820 -182 1105
-422 281 -237 458 -630 458 -1023 0 -151 -17 -252 -65 -390 -39 -109 -63 -156
-139 -271 -61 -91 -258 -302 -307 -328 -21 -11 -21 -9 8 48 140 275 131 631
-25 942 l-43 86 25 59 c71 168 99 401 68 574 -31 181 -88 315 -157 374 -65 56
-126 70 -251 57 -256 -26 -476 -126 -652 -295 l-70 -68 -100 14 c-151 20 -506
17 -625 -5 -197 -37 -368 -89 -510 -156 l-66 -31 -119 60 c-178 90 -278 113
-480 113 -226 1 -325 -23 -398 -97 -71 -70 -93 -168 -84 -371 10 -225 69 -395
202 -579 l56 -79 -18 -76 c-23 -102 -24 -374 0 -476 42 -185 78 -238 145 -214
50 17 57 50 27 147 -94 315 -36 648 165 948 74 110 272 305 390 383 205 136
422 223 695 277 139 28 512 26 655 -3 558 -113 966 -456 1087 -913 21 -78 26
-120 27 -235 1 -146 -7 -191 -54 -317 -79 -212 -314 -425 -610 -553 -349 -151
-807 -235 -1217 -222 -409 13 -690 99 -896 275 -71 60 -100 71 -136 51 -37
-21 -50 -63 -29 -99 l16 -29 -26 10 c-69 26 -228 117 -303 174 -98 73 -228
206 -286 290 -89 132 -158 304 -188 470 -22 120 -22 360 -1 483 125 705 788
1208 1816 1377 321 52 646 67 910 40z m805 -449 c33 -14 48 -36 24 -36 -22 0
-191 -90 -263 -140 -39 -27 -101 -77 -138 -110 l-67 -61 -119 47 -118 47 40
37 c147 133 349 211 589 229 10 0 33 -6 52 -13z m122 -243 c26 -112 23 -319
-6 -427 -11 -44 -23 -82 -26 -85 -3 -2 -35 28 -71 67 -71 78 -175 166 -266
226 l-56 38 55 50 c68 62 172 129 266 174 40 18 75 33 79 34 4 0 15 -35 25
-77z m-2655 -142 c83 -21 211 -74 215 -88 1 -4 -28 -29 -65 -55 -37 -27 -82
-60 -99 -74 l-33 -26 -88 46 c-110 56 -239 100 -356 121 -49 8 -93 15 -99 15
-13 0 22 39 47 52 75 40 341 45 478 9z m-352 -248 c113 -32 254 -98 244 -115
-4 -7 -29 -38 -55 -68 -64 -75 -127 -170 -174 -262 -22 -43 -43 -78 -46 -78
-12 0 -70 99 -101 172 -38 89 -68 231 -68 321 l0 68 58 -7 c31 -3 95 -17 142
-31z m2700 -1844 c34 -65 25 -89 -45 -126 -92 -49 -296 -128 -431 -167 -462
-133 -973 -169 -1394 -100 -139 23 -145 27 -144 98 1 31 6 62 12 68 8 8 55 4
164 -12 190 -28 466 -37 649 -21 384 34 700 112 1019 250 63 27 123 50 132 50
11 1 26 -15 38 -40z m518 -54 c140 -21 250 -50 281 -72 59 -45 64 -138 10
-192 -42 -42 -82 -47 -186 -23 -194 45 -369 52 -511 22 -29 -7 -55 -10 -57 -8
-2 1 -6 19 -10 38 -6 33 -4 37 38 66 46 33 87 101 87 145 0 14 3 29 7 32 12
13 242 7 341 -8z m-618 -330 c0 -352 -265 -676 -642 -786 -105 -30 -315 -37
-429 -15 -108 22 -230 72 -317 130 -86 57 -205 182 -255 266 -34 58 -95 226
-86 234 2 2 36 -1 74 -7 100 -14 539 -14 675 2 332 36 658 112 880 204 47 19
88 36 93 36 4 1 7 -28 7 -64z m-2001 -88 c18 -14 50 -32 71 -38 34 -10 41 -17
46 -46 4 -19 4 -36 2 -39 -3 -2 -56 -9 -119 -15 -192 -16 -332 -57 -449 -129
-76 -47 -120 -51 -171 -17 -85 57 -78 163 16 227 108 74 258 129 435 160 l95
16 21 -46 c12 -25 35 -58 53 -73z m555 -723 c19 -14 19 -15 -18 -53 -21 -22
-66 -53 -100 -69 -93 -46 -160 -56 -321 -48 -155 8 -217 -1 -302 -41 -63 -29
-145 -115 -168 -178 -16 -40 -21 -45 -49 -45 -17 0 -42 -3 -55 -7 -22 -6 -23
-4 -16 28 21 101 101 211 200 274 98 63 170 77 398 79 198 1 203 1 258 28 30
15 66 39 79 52 25 27 33 25 94 -20z m716 -226 c15 -84 8 -284 -11 -338 -43
-126 -206 -130 -246 -5 -6 19 -6 63 1 123 9 89 3 166 -20 265 l-6 27 135 0
135 0 12 -72z m-1642 -391 c4 -33 -22 -67 -50 -67 -26 0 -58 36 -58 64 0 27
16 35 70 33 31 -2 35 -6 38 -30z"/>
        <path d="M3172 3369 c-35 -13 -45 -46 -38 -121 7 -79 20 -104 59 -118 37 -12
84 10 93 44 9 36 -12 155 -31 176 -19 22 -54 29 -83 19z"/>
        <path d="M1937 3203 c-34 -9 -48 -57 -37 -125 5 -35 10 -66 10 -70 0 -5 9 -17
20 -28 25 -25 71 -26 101 -1 18 15 22 27 21 69 -3 124 -40 175 -115 155z"/>
        <path d="M2697 3170 c-73 -67 -123 -76 -194 -34 -55 32 -98 29 -126 -8 -55
-74 55 -163 203 -163 91 0 146 23 208 86 34 35 42 50 42 80 0 29 -6 43 -26 58
-38 30 -59 26 -107 -19z"/>
        <path d="M3565 3139 c-84 -11 -129 -25 -146 -45 -18 -22 -13 -74 10 -97 23
-23 41 -24 161 -8 46 6 124 11 172 11 75 0 91 3 108 20 30 30 27 83 -6 109
-23 18 -40 21 -128 20 -55 -1 -132 -6 -171 -10z"/>
        <path d="M3408 2880 c-33 -25 -39 -49 -22 -88 10 -24 22 -33 56 -41 76 -19
181 -52 260 -83 69 -27 79 -29 104 -17 40 20 54 71 28 106 -23 30 -146 83
-276 118 -112 30 -119 30 -150 5z"/>
        <path d="M1591 2870 c-183 -37 -231 -62 -231 -121 0 -34 31 -69 62 -69 12 0
67 11 123 25 55 13 136 29 180 34 63 8 83 14 97 31 25 31 23 72 -5 98 -29 28
-93 28 -226 2z"/>
        <path d="M1746 2635 c-81 -46 -170 -109 -218 -153 -34 -31 -39 -89 -10 -115
35 -32 72 -21 163 46 47 34 117 80 156 102 93 52 112 88 72 139 -30 39 -70 34
-163 -19z"/>
        <path d="M2847 1446 c-118 -43 -187 -138 -187 -261 0 -45 -3 -53 -25 -65 -77
-41 -18 -158 64 -129 28 10 36 8 69 -14 54 -38 90 -49 157 -50 106 -1 192 52
238 147 20 40 27 70 27 111 0 50 3 59 31 82 39 34 38 86 -3 116 -24 18 -32 19
-63 10 -33 -10 -41 -9 -84 19 -78 47 -153 59 -224 34z m100 -144 c8 -5 -12
-21 -58 -46 -39 -21 -72 -36 -75 -33 -3 2 7 19 22 37 37 44 82 61 111 42z m87
-154 c-29 -52 -98 -88 -131 -70 -14 8 -5 16 53 45 75 39 89 43 78 25z"/>
        <path d="M510 2048 c-50 -17 -126 -95 -139 -143 -28 -102 6 -201 87 -258 44
-30 53 -32 128 -32 71 0 85 3 122 28 62 40 95 96 100 168 7 97 -39 183 -122
226 -38 20 -131 25 -176 11z m124 -159 c53 -42 23 -129 -46 -129 -69 0 -102
77 -53 125 30 30 64 32 99 4z"/>
        <path d="M4276 1285 c-83 -29 -146 -120 -146 -210 0 -134 113 -235 249 -222
228 20 276 332 66 428 -47 22 -115 24 -169 4z m131 -157 c47 -44 14 -128 -51
-128 -67 0 -99 77 -51 125 30 31 71 32 102 3z"/>
        <path d="M774 996 c-204 -95 -149 -408 75 -424 71 -5 121 10 167 51 53 46 78
101 78 172 0 96 -44 163 -134 204 -60 27 -123 26 -186 -3z m135 -136 c31 -16
45 -64 29 -97 -27 -56 -109 -57 -133 -1 -29 70 39 133 104 98z"/>
    </g>
</svg>
